<?xml version="1.0" encoding="UTF-8" standalone="no"?>
<!-- Created with Inkscape (http://www.inkscape.org/) -->
<svg width="50mm" height="72mm" viewBox="0 0 50 72" version="1.1" id="svg5" xml:space="preserve" inkscape:version="1.2.2 (b0a8486541, 2022-12-01)" sodipodi:docname="cat ears-sticker-en.svg" inkscape:export-filename="cat ears.png" inkscape:export-xdpi="96" inkscape:export-ydpi="96" xmlns:inkscape="http://www.inkscape.org/namespaces/inkscape" xmlns:sodipodi="http://sodipodi.sourceforge.net/DTD/sodipodi-0.dtd" xmlns:xlink="http://www.w3.org/1999/xlink" xmlns="http://www.w3.org/2000/svg" xmlns:svg="http://www.w3.org/2000/svg"><sodipodi:namedview id="namedview7" pagecolor="#ffffff" bordercolor="#000000" borderopacity="0.25" inkscape:showpageshadow="2" inkscape:pageopacity="1" inkscape:pagecheckerboard="0" inkscape:deskcolor="#d1d1d1" inkscape:document-units="mm" showgrid="false" inkscape:zoom="2.587745" inkscape:cx="69.558631" inkscape:cy="187.8083" inkscape:window-width="1995" inkscape:window-height="1533" inkscape:window-x="26" inkscape:window-y="23" inkscape:window-maximized="0" inkscape:current-layer="layer1"/><defs id="defs2"><rect x="-6.8049111" y="362.45963" width="94.914034" height="200.69365" id="rect1151"/></defs><g inkscape:label="Layer 1" inkscape:groupmode="layer" id="layer1" transform="translate(-60.710728,-104.21073)"><g id="g2608" transform="matrix(0.48509521,0,0,0.48509521,34.775731,57.189059)" style="stroke-width:2.06145"><g id="g2598" style="stroke-width:2.06145"><circle style="font-variation-settings:normal;opacity:1;vector-effect:none;fill:#24578e;fill-opacity:1;stroke-width:0.545425;stroke-linecap:butt;stroke-linejoin:miter;stroke-miterlimit:4;stroke-dasharray:none;stroke-dashoffset:0;stroke-opacity:1;-inkscape-stroke:none;stop-color:#000000;stop-opacity:1" id="path604" cx="105" cy="148.5" r="44.289272"/><g id="g6216" transform="translate(23.25062,38.101623)" style="stroke-width:2.06145"><g id="g5118" transform="translate(3.1999073,2.9986468)" style="stroke-width:2.06145"><path style="font-variation-settings:normal;opacity:1;fill:none;fill-opacity:1;stroke:#ffffff;stroke-width:3.29832;stroke-linecap:round;stroke-linejoin:round;stroke-miterlimit:4;stroke-dasharray:none;stroke-dashoffset:0;stroke-opacity:1;stop-color:#000000;stop-opacity:1" d="m 78.549468,90.046819 c 12.236007,0.03178 20.122693,9.265191 20.199365,18.783201 0.09897,12.28578 -7.487303,19.12867 -10.282965,22.87327" id="path722" sodipodi:nodetypes="csc"/><path style="font-variation-settings:normal;opacity:1;fill:#ffffff;fill-opacity:1;stroke:none;stroke-width:6.52449;stroke-linecap:round;stroke-linejoin:round;stroke-miterlimit:4;stroke-dasharray:none;stroke-dashoffset:0;stroke-opacity:1;stop-color:#000000;stop-opacity:1" d="m 86.160857,90.681669 c 4.267647,-3.908014 8.963567,-7.403841 13.064261,-8.492584 1.736182,-0.460959 3.069342,-0.9786 4.278292,-0.456909 0.83899,0.36205 0.84557,2.159932 0.82352,3.602977 -0.0507,3.3148 -1.51862,13.058362 -6.189674,16.319287 z" id="path2936" sodipodi:nodetypes="cssscc"/><path style="font-variation-settings:normal;opacity:1;fill:#24578e;fill-opacity:1;stroke:#24578e;stroke-width:1.78316;stroke-linecap:round;stroke-linejoin:round;stroke-miterlimit:4;stroke-dasharray:none;stroke-dashoffset:0;stroke-opacity:1;stop-color:#000000;stop-opacity:1" d="m 92.327698,91.828902 c 1.36202,-1.194625 3.732036,-2.29086 5.347569,-2.459606 -0.106887,2.274354 -0.499274,4.546768 -1.746008,5.985955 -0.960045,-1.661057 -2.07616,-2.864803 -3.601561,-3.526349 z" id="path5848" sodipodi:nodetypes="cccc"/></g><use x="0" y="0" xlink:href="#g5118" id="use5120" transform="matrix(-1,0,0,1,163.49876,2.4552201e-8)" style="stroke-width:3.29832;stroke-dasharray:none"/></g></g></g><g aria-label="Cat ears must be worn" transform="matrix(0.44725306,0,0,0.44725306,67.744869,-6.8933009)" id="text1149" style="font-weight:bold;font-size:16px;line-height:1;font-family:'Comic Sans MS';-inkscape-font-specification:'Comic Sans MS Bold';text-align:center;white-space:pre;shape-inside:url(#rect1151);display:inline;opacity:1;stroke:#000000;stroke-width:2.01228;stroke-linecap:round;stroke-linejoin:round;stop-color:#000000"><path d="m 20.164353,371.17689 c -0.48,1.024 -1.216,1.552 -2.176,1.552 -0.816,0 -1.408,-0.384 -1.76,-0.832 -0.448,-0.576 -0.576,-0.896 -0.576,-3.232 0,-2.336 0.128,-2.656 0.576,-3.232 0.352,-0.448 0.944,-0.832 1.76,-0.832 1.088,0 1.904,0.768 2.176,1.648 h 1.824 c -0.352,-1.856 -1.84,-3.376 -4,-3.376 -1.792,0 -3.024,1.056 -3.568,2.048 -0.368,0.672 -0.496,1.008 -0.496,3.744 0,2.736 0.128,3.072 0.496,3.744 0.544,0.992 1.776,2.048 3.568,2.048 1.952,0 3.552,-1.152 4,-3.28 z" style="font-weight:normal;font-family:'DIN 1451 Std';-inkscape-font-specification:'DIN 1451 Std';stroke:none;stroke-width:0.79704" id="path463"/><path d="m 27.316349,374.36089 h 1.632 v -5.536 c 0,-2 -1.376,-2.672 -3.376,-2.672 -1.216,0 -2.112,0.32 -2.736,1.184 l 1.28,0.976 c 0.288,-0.464 0.688,-0.624 1.536,-0.624 1.168,0 1.664,0.272 1.664,1.04 v 0.848 h -2.256 c -1.744,0 -2.64,1.104 -2.64,2.4 0,1.408 1.056,2.48 2.864,2.48 1.104,0 1.664,-0.256 2,-0.816 h 0.032 z m 0,-2.848 c 0,1.264 -0.464,1.408 -1.824,1.408 -1.104,0 -1.536,-0.48 -1.536,-1.024 0,-0.592 0.448,-0.976 1.408,-0.976 h 1.952 z" style="font-weight:normal;font-family:'DIN 1451 Std';-inkscape-font-specification:'DIN 1451 Std';stroke:none;stroke-width:0.79704" id="path465"/><path d="m 31.156349,366.24889 h -0.816 v 1.248 h 0.816 v 4.864 c 0,1.28 0.832,2 1.968,2 h 0.848 v -1.536 h -0.608 c -0.4,0 -0.576,-0.16 -0.576,-0.608 v -4.72 h 1.184 v -1.248 h -1.184 v -2.464 h -1.632 z" style="font-weight:normal;font-family:'DIN 1451 Std';-inkscape-font-specification:'DIN 1451 Std';stroke:none;stroke-width:0.79704" id="path467"/><path d="m 45.636343,370.92089 v -1.344 c 0,-2.096 -1.552,-3.424 -3.344,-3.424 -1.568,0 -3.344,1.024 -3.344,4.176 0,3.328 1.936,4.128 3.6,4.128 1.088,0 2.128,-0.384 2.928,-1.312 l -1.184,-1.008 c -0.48,0.496 -1.152,0.784 -1.776,0.784 -1.12,0 -1.936,-0.672 -1.936,-2 z m -5.056,-1.344 c 0.032,-1.232 0.752,-1.888 1.712,-1.888 0.96,0 1.664,0.656 1.712,1.888 z" style="font-weight:normal;font-family:'DIN 1451 Std';-inkscape-font-specification:'DIN 1451 Std';stroke:none;stroke-width:0.79704" id="path469"/><path d="m 51.604343,374.36089 h 1.632 v -5.536 c 0,-2 -1.376,-2.672 -3.376,-2.672 -1.216,0 -2.112,0.32 -2.736,1.184 l 1.28,0.976 c 0.288,-0.464 0.688,-0.624 1.536,-0.624 1.168,0 1.664,0.272 1.664,1.04 v 0.848 h -2.256 c -1.744,0 -2.64,1.104 -2.64,2.4 0,1.408 1.056,2.48 2.864,2.48 1.104,0 1.664,-0.256 2,-0.816 h 0.032 z m 0,-2.848 c 0,1.264 -0.464,1.408 -1.824,1.408 -1.104,0 -1.536,-0.48 -1.536,-1.024 0,-0.592 0.448,-0.976 1.408,-0.976 h 1.952 z" style="font-weight:normal;font-family:'DIN 1451 Std';-inkscape-font-specification:'DIN 1451 Std';stroke:none;stroke-width:0.79704" id="path471"/><path d="m 55.348343,374.36089 h 1.632 v -4.88 c 0,-1.184 0.784,-1.696 1.584,-1.696 0.416,0 0.688,0.112 1.072,0.4 l 1.184,-1.408 c -0.496,-0.384 -1.04,-0.624 -1.696,-0.624 -0.864,0 -1.6,0.32 -2.112,0.96 h -0.032 v -0.864 h -1.632 z" style="font-weight:normal;font-family:'DIN 1451 Std';-inkscape-font-specification:'DIN 1451 Std';stroke:none;stroke-width:0.79704" id="path473"/><path d="m 60.676342,373.00089 c 1.04,0.976 2.256,1.456 3.568,1.456 1.888,0 3.36,-0.912 3.36,-2.496 0,-1.296 -0.672,-2.32 -2.352,-2.432 l -1.344,-0.096 c -0.816,-0.064 -1.072,-0.416 -1.072,-0.768 0,-0.56 0.352,-0.976 1.392,-0.976 0.88,0 1.536,0.304 2.176,0.752 l 1.008,-1.184 c -0.8,-0.672 -1.76,-1.104 -3.184,-1.104 -1.712,0 -3.024,0.848 -3.024,2.496 0,1.392 0.992,2.192 2.336,2.304 l 1.44,0.128 c 0.56,0.048 0.992,0.224 0.992,0.8 0,0.688 -0.672,1.04 -1.6,1.04 -1.088,0 -1.856,-0.352 -2.56,-1.04 z" style="font-weight:normal;font-family:'DIN 1451 Std';-inkscape-font-specification:'DIN 1451 Std';stroke:none;stroke-width:0.79704" id="path475"/><path d="m -4.3556447,390.87081 h 1.632 v -4.832 c 0,-1.104 0.688,-1.744 1.616,-1.744 0.91200005,0 1.60000005,0.64 1.60000005,1.744 v 4.832 H 2.1243553 v -4.832 c 0,-1.104 0.688,-1.744 1.616,-1.744 0.912,0 1.6,0.64 1.6,1.744 v 4.832 h 1.632 v -5.392 c 0,-1.84 -1.44,-2.816 -2.704,-2.816 -1.104,0 -1.888,0.32 -2.56,1.056 -0.576,-0.592 -1.15199995,-1.056 -2.28799995,-1.056 -0.86400005,0 -1.60000005,0.32 -2.11200005,0.96 h -0.032 v -0.864 h -1.632 z" style="font-weight:normal;font-family:'DIN 1451 Std';-inkscape-font-specification:'DIN 1451 Std';stroke:none;stroke-width:0.79704" id="path477"/><path d="m 9.1803439,388.15081 c 0,1.84 1.4400001,2.816 2.7200001,2.816 0.848,0 1.584,-0.32 2.096,-0.96 h 0.032 v 0.864 h 1.632 v -8.112 h -1.632 v 4.832 c 0,1.104 -0.688,1.744 -1.6,1.744 -0.928,0 -1.616,-0.64 -1.616,-1.744 v -4.832 H 9.1803439 Z" style="font-weight:normal;font-family:'DIN 1451 Std';-inkscape-font-specification:'DIN 1451 Std';stroke:none;stroke-width:0.79704" id="path479"/><path d="m 16.876354,389.51081 c 1.04,0.976 2.256,1.456 3.568,1.456 1.888,0 3.36,-0.912 3.36,-2.496 0,-1.296 -0.672,-2.32 -2.352,-2.432 l -1.344,-0.096 c -0.816,-0.064 -1.072,-0.416 -1.072,-0.768 0,-0.56 0.352,-0.976 1.392,-0.976 0.88,0 1.536,0.304 2.176,0.752 l 1.008,-1.184 c -0.8,-0.672 -1.76,-1.104 -3.184,-1.104 -1.712,0 -3.024,0.848 -3.024,2.496 0,1.392 0.992,2.192 2.336,2.304 l 1.44,0.128 c 0.56,0.048 0.992,0.224 0.992,0.8 0,0.688 -0.672,1.04 -1.6,1.04 -1.088,0 -1.856,-0.352 -2.56,-1.04 z" style="font-weight:normal;font-family:'DIN 1451 Std';-inkscape-font-specification:'DIN 1451 Std';stroke:none;stroke-width:0.79704" id="path481"/><path d="m 25.548347,382.75881 h -0.816 v 1.248 h 0.816 v 4.864 c 0,1.28 0.832,2 1.968,2 h 0.848 v -1.536 h -0.608 c -0.4,0 -0.576,-0.16 -0.576,-0.608 v -4.72 h 1.184 v -1.248 h -1.184 v -2.464 h -1.632 z" style="font-weight:normal;font-family:'DIN 1451 Std';-inkscape-font-specification:'DIN 1451 Std';stroke:none;stroke-width:0.79704" id="path483"/><path d="m 33.740341,390.87081 h 1.632 v -0.848 c 0.512,0.56 1.264,0.944 2.096,0.944 0.992,0 1.712,-0.448 2.176,-1.056 0.448,-0.576 0.576,-1.104 0.576,-3.104 0,-1.984 -0.128,-2.512 -0.576,-3.088 -0.464,-0.608 -1.184,-1.056 -2.176,-1.056 -0.832,0 -1.488,0.384 -2.096,0.96 v -4.144 h -1.632 z m 3.232,-6.576 c 1.536,0 1.616,1.264 1.616,2.512 0,1.264 -0.08,2.528 -1.616,2.528 -1.52,0 -1.6,-1.344 -1.6,-2.528 0,-1.168 0.08,-2.512 1.6,-2.512 z" style="font-weight:normal;font-family:'DIN 1451 Std';-inkscape-font-specification:'DIN 1451 Std';stroke:none;stroke-width:0.79704" id="path485"/><path d="m 48.332327,387.43081 v -1.344 c 0,-2.096 -1.552,-3.424 -3.344,-3.424 -1.568,0 -3.344,1.024 -3.344,4.176 0,3.328 1.936,4.128 3.6,4.128 1.088,0 2.128,-0.384 2.928,-1.312 l -1.184,-1.008 c -0.48,0.496 -1.152,0.784 -1.776,0.784 -1.12,0 -1.936,-0.672 -1.936,-2 z m -5.056,-1.344 c 0.032,-1.232 0.752,-1.888 1.712,-1.888 0.96,0 1.664,0.656 1.712,1.888 z" style="font-weight:normal;font-family:'DIN 1451 Std';-inkscape-font-specification:'DIN 1451 Std';stroke:none;stroke-width:0.79704" id="path487"/><path d="m 60.316323,390.87081 h 1.44 l 2.592,-8.112 h -1.728 l -1.552,5.68 h -0.032 l -1.84,-5.68 h -1.184 l -1.84,5.68 h -0.032 l -1.552,-5.68 h -1.728 l 2.592,8.112 h 1.44 l 1.696,-5.68 h 0.032 z" style="font-weight:normal;font-family:'DIN 1451 Std';-inkscape-font-specification:'DIN 1451 Std';stroke:none;stroke-width:0.79704" id="path489"/><path d="m 65.036325,386.80681 c 0,1.76 0.256,2.432 0.88,3.12 0.448,0.496 1.2,1.04 2.464,1.04 1.264,0 2.016,-0.544 2.464,-1.04 0.624,-0.688 0.88,-1.36 0.88,-3.12 0,-1.744 -0.256,-2.416 -0.88,-3.104 -0.448,-0.496 -1.2,-1.04 -2.464,-1.04 -1.264,0 -2.016,0.544 -2.464,1.04 -0.624,0.688 -0.88,1.36 -0.88,3.104 z m 5.056,0.016 c 0,1.168 -0.096,1.488 -0.4,1.92 -0.24,0.336 -0.752,0.592 -1.312,0.592 -0.56,0 -1.072,-0.256 -1.312,-0.592 -0.304,-0.432 -0.4,-0.752 -0.4,-1.936 0,-1.168 0.096,-1.488 0.4,-1.92 0.24,-0.336 0.752,-0.592 1.312,-0.592 0.56,0 1.072,0.256 1.312,0.592 0.304,0.432 0.4,0.752 0.4,1.936 z" style="font-weight:normal;font-family:'DIN 1451 Std';-inkscape-font-specification:'DIN 1451 Std';stroke:none;stroke-width:0.79704" id="path491"/><path d="m 73.436325,390.87081 h 1.632 v -4.88 c 0,-1.184 0.784,-1.696 1.584,-1.696 0.416,0 0.688,0.112 1.072,0.4 l 1.184,-1.408 c -0.496,-0.384 -1.04,-0.624 -1.696,-0.624 -0.864,0 -1.6,0.32 -2.112,0.96 h -0.032 v -0.864 h -1.632 z" style="font-weight:normal;font-family:'DIN 1451 Std';-inkscape-font-specification:'DIN 1451 Std';stroke:none;stroke-width:0.79704" id="path493"/><path d="m 79.276322,390.87081 h 1.632 v -4.832 c 0,-1.104 0.688,-1.744 1.616,-1.744 0.912,0 1.6,0.64 1.6,1.744 v 4.832 h 1.632 v -5.392 c 0,-1.84 -1.44,-2.816 -2.704,-2.816 -0.864,0 -1.6,0.32 -2.112,0.96 h -0.032 v -0.864 h -1.632 z" style="font-weight:normal;font-family:'DIN 1451 Std';-inkscape-font-specification:'DIN 1451 Std';stroke:none;stroke-width:0.79704" id="path495"/></g><rect style="opacity:1;fill:none;fill-opacity:1;stroke:#000000;stroke-width:0.899997;stroke-linecap:round;stroke-linejoin:round;stop-color:#000000" id="rect1863" width="46.000004" height="68" x="62.710728" y="106.21073" rx="3.0258055" ry="3.0258052"/></g></svg>